<?xml version="1.0" encoding="utf-8"?><svg viewBox="0 0 36 36" xmlns="http://www.w3.org/2000/svg" xmlns:xlink="http://www.w3.org/1999/xlink"><style>:root>svg{display:none}:root>svg:target{display:block}</style><svg fill="none" viewBox="0 0 6 10" id="Vector" xmlns="http://www.w3.org/2000/svg"><path d="M.442 8.443 3.877 5 .442 1.558 1.5.5 6 5 1.5 9.5.442 8.443Z" fill="#525252"/></svg><svg fill="none" viewBox="0 0 26 26" id="ant-design_whats-app-outlined" xmlns="http://www.w3.org/2000/svg"><path d="M18.116 15.232c-.276-.142-1.655-.818-1.912-.91-.256-.096-.444-.141-.63.143-.187.282-.72.909-.888 1.1-.162.187-.328.21-.604.07-1.646-.822-2.725-1.467-3.809-3.328-.287-.495.287-.46.823-1.529.091-.188.045-.348-.026-.49-.07-.142-.63-1.518-.863-2.08-.226-.545-.46-.469-.63-.48-.162-.01-.347-.01-.535-.01-.188 0-.49.072-.747.349-.256.281-.98.96-.98 2.335 0 1.377 1.003 2.71 1.14 2.898.142.188 1.973 3.01 4.784 4.227 1.777.767 2.473.833 3.361.7.541-.08 1.656-.675 1.887-1.332.231-.655.231-1.216.162-1.333-.068-.124-.256-.196-.533-.33Z" fill="#fff"/><path d="M23.491 8.592a11.379 11.379 0 0 0-2.445-3.638 11.282 11.282 0 0 0-3.638-2.445A11.321 11.321 0 0 0 13 1.625h-.05a11.349 11.349 0 0 0-8.037 3.362 11.272 11.272 0 0 0-2.417 3.626 11.379 11.379 0 0 0-.871 4.44 11.41 11.41 0 0 0 1.219 5.076v3.86c0 .644.523 1.167 1.168 1.167h3.862a11.41 11.41 0 0 0 5.075 1.219h.054c1.52 0 2.996-.294 4.384-.87a11.285 11.285 0 0 0 3.626-2.418 11.348 11.348 0 0 0 3.362-8.036 11.332 11.332 0 0 0-.884-4.459Zm-3.836 11.121A9.395 9.395 0 0 1 13 22.445h-.043a9.479 9.479 0 0 1-4.395-1.104l-.214-.114H4.773v-3.575l-.114-.214a9.48 9.48 0 0 1-1.104-4.395 9.387 9.387 0 0 1 2.732-6.698 9.374 9.374 0 0 1 6.672-2.79h.044a9.4 9.4 0 0 1 3.66.733 9.386 9.386 0 0 1 3.022 2.032 9.406 9.406 0 0 1 2.765 6.723 9.41 9.41 0 0 1-2.795 6.67Z" fill="#fff"/></svg><svg fill="none" viewBox="0 0 26 26" id="ant-design_youtube-outlined" xmlns="http://www.w3.org/2000/svg"><path d="M24.375 12.93c0-.057 0-.12-.003-.194-.002-.206-.007-.437-.012-.683a38.176 38.176 0 0 0-.112-2.08c-.076-.916-.188-1.68-.34-2.254a3.543 3.543 0 0 0-2.496-2.501c-.719-.193-2.125-.312-4.106-.386-.942-.036-1.95-.058-2.958-.071-.353-.005-.68-.008-.975-.01h-.746c-.295.002-.622.005-.975.01-1.008.013-2.016.035-2.958.071-1.98.076-3.39.195-4.106.386a3.538 3.538 0 0 0-2.496 2.5c-.155.575-.264 1.339-.34 2.256a38.237 38.237 0 0 0-.112 2.08c-.007.245-.01.476-.012.682 0 .074-.003.137-.003.193v.142c0 .056 0 .12.003.193.002.206.007.437.012.683.02.709.056 1.415.112 2.08.076.916.188 1.68.34 2.254a3.538 3.538 0 0 0 2.496 2.501c.716.193 2.125.313 4.106.386.942.036 1.95.059 2.958.071.353.005.68.008.975.01h.746c.295-.002.622-.005.975-.01 1.008-.012 2.016-.035 2.958-.07 1.98-.077 3.39-.196 4.106-.387a3.534 3.534 0 0 0 2.496-2.5c.155-.574.264-1.339.34-2.255.056-.666.091-1.371.112-2.08.007-.246.01-.477.012-.683 0-.073.003-.137.003-.193v-.142Zm-1.828.131c0 .053 0 .112-.003.18-.002.198-.007.417-.012.653a34.28 34.28 0 0 1-.107 1.978c-.069.817-.165 1.488-.284 1.937a1.708 1.708 0 0 1-1.204 1.206c-.533.142-1.876.257-3.702.325a115.609 115.609 0 0 1-3.872.079h-.726l-.96-.008c-.993-.012-1.985-.035-2.912-.07-1.826-.072-3.171-.184-3.702-.326a1.713 1.713 0 0 1-1.204-1.206c-.119-.45-.215-1.12-.284-1.937a36.77 36.77 0 0 1-.107-1.978c-.007-.236-.01-.457-.012-.653 0-.068-.003-.13-.003-.18v-.122c0-.053 0-.111.003-.18.002-.198.007-.417.012-.653.018-.675.054-1.35.107-1.977.069-.818.165-1.488.284-1.938a1.708 1.708 0 0 1 1.204-1.206c.533-.142 1.876-.256 3.702-.325a115.36 115.36 0 0 1 3.872-.079h.726l.96.008c.993.013 1.985.036 2.912.071 1.826.071 3.171.183 3.702.325.584.158 1.046.62 1.204 1.206.119.45.215 1.12.284 1.938.053.627.086 1.302.107 1.977.007.236.01.457.012.653 0 .069.003.13.003.18v.122ZM10.74 16.402l5.89-3.427-5.89-3.377v6.804Z" fill="#fff"/></svg><svg fill="none" viewBox="0 0 29 19" id="arrow" xmlns="http://www.w3.org/2000/svg"><path d="M28.375 7.958H6.53l5.519-5.534L9.875.25.625 9.5l9.25 9.25 2.174-2.174-5.52-5.534h21.846V7.958Z" fill="#8F8F8F"/></svg><svg fill="none" viewBox="0 0 18 12" id="arrow_small" xmlns="http://www.w3.org/2000/svg"><path d="M18 5H3.83l3.58-3.59L6 0 0 6l6 6 1.41-1.41L3.83 7H18V5Z" fill="#2D2D2D"/></svg><svg fill="none" viewBox="0 0 26 26" id="bi_instagram" xmlns="http://www.w3.org/2000/svg"><path d="M13 2c-2.985 0-3.36.014-4.533.066-1.173.055-1.972.24-2.672.512-.734.276-1.4.709-1.948 1.269a5.4 5.4 0 0 0-1.27 1.948c-.272.699-.457 1.499-.511 2.668C2.014 9.638 2 10.013 2 13c0 2.987.014 3.36.066 4.534.055 1.171.24 1.97.512 2.67a5.403 5.403 0 0 0 1.269 1.948c.61.612 1.223.989 1.947 1.27.7.272 1.498.457 2.67.511C9.638 23.986 10.012 24 13 24c2.988 0 3.36-.014 4.535-.066 1.17-.055 1.971-.24 2.671-.512a5.386 5.386 0 0 0 1.947-1.269 5.404 5.404 0 0 0 1.27-1.948c.27-.7.456-1.499.511-2.67.052-1.173.066-1.547.066-4.535 0-2.988-.014-3.362-.066-4.536-.055-1.17-.24-1.97-.512-2.669a5.4 5.4 0 0 0-1.269-1.948 5.379 5.379 0 0 0-1.948-1.27c-.701-.272-1.502-.457-2.672-.511C16.36 2.014 15.986 2 12.997 2h.004H13Zm-.986 1.983h.987c2.937 0 3.285.01 4.444.063 1.073.048 1.656.228 2.044.378.512.2.88.439 1.265.824a3.4 3.4 0 0 1 .822 1.265c.151.386.33.97.378 2.042.054 1.159.065 1.507.065 4.442 0 2.936-.011 3.285-.065 4.444-.048 1.073-.228 1.654-.378 2.042-.177.478-.458.91-.824 1.264-.385.385-.75.623-1.265.822-.385.151-.968.33-2.042.38-1.159.052-1.507.064-4.444.064-2.937 0-3.286-.012-4.445-.065-1.072-.049-1.654-.228-2.042-.379a3.407 3.407 0 0 1-1.265-.822 3.41 3.41 0 0 1-.825-1.265c-.15-.387-.33-.97-.378-2.042-.052-1.16-.063-1.507-.063-4.446 0-2.937.01-3.283.063-4.442.05-1.073.228-1.656.38-2.043.199-.513.438-.88.823-1.265.385-.385.75-.623 1.265-.823.388-.15.97-.33 2.042-.38 1.015-.046 1.408-.06 3.458-.061v.003Zm6.859 1.826a1.32 1.32 0 1 0 0 2.64 1.32 1.32 0 0 0 0-2.64ZM13 7.35a5.65 5.65 0 1 0-.176 11.3 5.65 5.65 0 0 0 .176-11.3Zm0 1.982a3.667 3.667 0 1 1 0 7.333 3.667 3.667 0 0 1 0-7.333Z" fill="#fff"/></svg><svg fill="none" viewBox="0 0 24 24" id="bx_bx-bell" xmlns="http://www.w3.org/2000/svg"><path d="M19 13.586V10c0-3.217-2.185-5.927-5.145-6.742A1.99 1.99 0 0 0 12 2a1.99 1.99 0 0 0-1.855 1.258C7.185 4.074 5 6.783 5 10v3.586l-1.707 1.707A.996.996 0 0 0 3 16v2a1 1 0 0 0 1 1h16a1 1 0 0 0 1-1v-2a.996.996 0 0 0-.293-.707L19 13.586ZM19 17H5v-.586l1.707-1.707A.996.996 0 0 0 7 14v-4c0-2.757 2.243-5 5-5s5 2.243 5 5v4c0 .266.105.52.293.707L19 16.414V17Zm-7 5a2.98 2.98 0 0 0 2.818-2H9.182A2.98 2.98 0 0 0 12 22Z" fill="#3670C7"/></svg><svg fill="none" viewBox="0 0 24 24" id="chat" xmlns="http://www.w3.org/2000/svg"><g clip-path="url(#ga)"><path d="M20 2H4c-1.1 0-1.99.9-1.99 2L2 22l4-4h14c1.1 0 2-.9 2-2V4c0-1.1-.9-2-2-2ZM6 9h12v2H6V9Zm8 5H6v-2h8v2Zm4-6H6V6h12v2Z" fill="#8F8F8F"/></g><defs><clipPath id="ga"><path fill="#fff" d="M0 0h24v24H0z"/></clipPath></defs></svg><svg fill="none" viewBox="0 0 36 36" id="favorite" xmlns="http://www.w3.org/2000/svg"><g clip-path="url(#ha)"><path d="m18 32.025-2.175-1.98C8.1 23.04 3 18.42 3 12.75 3 8.13 6.63 4.5 11.25 4.5c2.61 0 5.115 1.215 6.75 3.135 1.635-1.92 4.14-3.135 6.75-3.135 4.62 0 8.25 3.63 8.25 8.25 0 5.67-5.1 10.29-12.825 17.31L18 32.025Z" fill="#2D2D2D"/></g><defs><clipPath id="ha"><path fill="#fff" d="M0 0h36v36H0z"/></clipPath></defs></svg><svg fill="none" viewBox="0 0 33 33" id="favorite_border" xmlns="http://www.w3.org/2000/svg"><g clip-path="url(#ia)"><path d="M22.688 4.125c-2.393 0-4.69 1.114-6.188 2.874-1.499-1.76-3.795-2.874-6.188-2.874-4.234 0-7.562 3.327-7.562 7.563 0 5.197 4.675 9.432 11.756 15.867l1.994 1.801 1.994-1.815C25.575 21.12 30.25 16.885 30.25 11.687c0-4.234-3.328-7.562-7.563-7.562Zm-6.05 21.381-.138.138-.137-.138C9.818 19.58 5.5 15.661 5.5 11.687c0-2.75 2.063-4.812 4.813-4.812 2.117 0 4.18 1.361 4.908 3.245h2.572c.715-1.884 2.777-3.245 4.895-3.245 2.75 0 4.812 2.063 4.812 4.813 0 3.973-4.317 7.892-10.863 13.818Z" fill="#3670C7"/></g><defs><clipPath id="ia"><path fill="#fff" d="M0 0h33v33H0z"/></clipPath></defs></svg><svg fill="none" viewBox="0 0 26 26" id="feather_facebook" xmlns="http://www.w3.org/2000/svg"><path d="M19.5 2.167h-3.25a5.417 5.417 0 0 0-5.417 5.416v3.25h-3.25v4.333h3.25v8.667h4.334v-8.666h3.25l1.083-4.334h-4.333v-3.25A1.083 1.083 0 0 1 16.25 6.5h3.25V2.167Z" stroke="#fff" stroke-width="2" stroke-linecap="round" stroke-linejoin="round"/></svg><svg fill="none" viewBox="0 0 26 26" id="la_telegram-plane" xmlns="http://www.w3.org/2000/svg"><path d="M21.182 3.247c-.261.019-.517.08-.758.181h-.003c-.232.092-1.333.555-3.007 1.257L11.416 7.21c-4.303 1.812-8.534 3.596-8.534 3.596l.05-.02s-.291.096-.596.305a1.65 1.65 0 0 0-.476.461c-.15.22-.27.555-.225.902.073.586.453.938.726 1.133.276.196.54.288.54.288h.006l3.968 1.337c.178.57 1.209 3.96 1.456 4.741.147.467.289.758.467.98.086.115.187.21.308.286a.91.91 0 0 0 .2.086l-.041-.01c.012.004.022.014.03.017.033.009.055.012.097.018.628.19 1.132-.2 1.132-.2l.029-.022 2.342-2.133 3.926 3.012.09.038c.818.36 1.646.16 2.084-.193.442-.355.613-.81.613-.81l.029-.073L22.67 5.408c.086-.383.108-.743.013-1.091a1.468 1.468 0 0 0-.634-.85 1.521 1.521 0 0 0-.867-.22ZM21.1 4.912c-.003.052.006.046-.016.144v.01l-3.006 15.38c-.013.022-.035.07-.095.118-.063.05-.114.082-.378-.023l-4.802-3.682-2.9 2.644.61-3.892L18.357 8.3c.323-.3.215-.364.215-.364.023-.369-.488-.108-.488-.108l-9.893 6.129-.004-.017-4.741-1.596v-.004l-.013-.002a.236.236 0 0 0 .025-.01l.026-.013.025-.009 8.538-3.596c2.155-.907 4.325-1.821 5.995-2.527 1.67-.7 2.904-1.215 2.974-1.243.067-.026.035-.026.083-.026Z" fill="#fff"/></svg><svg fill="none" viewBox="0 0 36 36" id="person" xmlns="http://www.w3.org/2000/svg"><g clip-path="url(#la)"><path d="M18 18c3.315 0 6-2.685 6-6s-2.685-6-6-6-6 2.685-6 6 2.685 6 6 6Zm0 3c-4.005 0-12 2.01-12 6v3h24v-3c0-3.99-7.995-6-12-6Z" fill="#2D2D2D"/></g><defs><clipPath id="la"><path fill="#fff" d="M0 0h36v36H0z"/></clipPath></defs></svg><svg fill="none" viewBox="0 0 15 6" id="polygon1" xmlns="http://www.w3.org/2000/svg"><path d="M7.5 6 .139 0H14.86L7.5 6Z" fill="#fff"/></svg><svg fill="none" viewBox="0 0 36 36" id="search" xmlns="http://www.w3.org/2000/svg"><g clip-path="url(#na)"><path d="M23.25 21h-1.185l-.42-.405A9.707 9.707 0 0 0 24 14.25a9.75 9.75 0 0 0-9.75-9.75 9.75 9.75 0 0 0-9.75 9.75A9.75 9.75 0 0 0 14.25 24a9.707 9.707 0 0 0 6.345-2.355l.405.42v1.185l7.5 7.485 2.235-2.235L23.25 21Zm-9 0a6.741 6.741 0 0 1-6.75-6.75 6.741 6.741 0 0 1 6.75-6.75A6.741 6.741 0 0 1 21 14.25 6.741 6.741 0 0 1 14.25 21Z" fill="#fff"/></g><defs><clipPath id="na"><path fill="#fff" d="M0 0h36v36H0z"/></clipPath></defs></svg><svg fill="none" viewBox="0 0 36 36" id="shopping_cart" xmlns="http://www.w3.org/2000/svg"><g clip-path="url(#oa)"><path d="M10.5 27a2.996 2.996 0 0 0-2.985 3c0 1.65 1.335 3 2.985 3s3-1.35 3-3-1.35-3-3-3Zm-9-24v3h3l5.4 11.385-2.025 3.675A2.9 2.9 0 0 0 7.5 22.5c0 1.65 1.35 3 3 3h18v-3H11.13a.371.371 0 0 1-.375-.375l.045-.18 1.35-2.445h11.175a2.986 2.986 0 0 0 2.625-1.545l5.37-9.735c.12-.21.18-.465.18-.72 0-.825-.675-1.5-1.5-1.5H7.815l-1.41-3H1.5Zm24 24a2.996 2.996 0 0 0-2.985 3c0 1.65 1.335 3 2.985 3s3-1.35 3-3-1.35-3-3-3Z" fill="#2D2D2D"/><circle cx="29" cy="7" r="7" fill="#fff"/><path d="M31.867 10.39c.187 0 .334.054.441.161.112.103.168.24.168.413V12h-6.944v-.574a.974.974 0 0 1 .308-.714l3.073-3.08c.257-.261.485-.511.686-.749a4.7 4.7 0 0 0 .511-.707c.135-.233.238-.469.308-.707.075-.243.112-.497.112-.763a1.77 1.77 0 0 0-.105-.637 1.25 1.25 0 0 0-.301-.469 1.161 1.161 0 0 0-.462-.28 1.733 1.733 0 0 0-.602-.098c-.205 0-.397.03-.574.091a1.461 1.461 0 0 0-.462.245c-.135.103-.25.224-.343.364a1.6 1.6 0 0 0-.21.462c-.08.215-.182.357-.308.427s-.308.086-.546.049l-.91-.161c.07-.485.205-.91.406-1.274.2-.369.45-.674.749-.917a3.078 3.078 0 0 1 1.036-.553 4.094 4.094 0 0 1 1.26-.189c.467 0 .894.07 1.281.21.387.135.719.329.994.581.275.252.49.555.644.91.154.355.231.749.231 1.183 0 .373-.056.719-.168 1.036a4.09 4.09 0 0 1-.441.91c-.182.29-.397.57-.644.84s-.506.546-.777.826l-2.282 2.331c.22-.065.436-.114.651-.147.22-.037.427-.056.623-.056h2.597Z" fill="#3670C7"/></g><defs><clipPath id="oa"><path fill="#fff" d="M0 0h36v36H0z"/></clipPath></defs></svg><svg fill="none" viewBox="0 0 24 24" id="sort" xmlns="http://www.w3.org/2000/svg"><g clip-path="url(#pa)"><path d="M3 18h6v-2H3v2ZM3 6v2h18V6H3Zm0 7h12v-2H3v2Z" fill="#fff"/></g><defs><clipPath id="pa"><path fill="#fff" d="M0 0h24v24H0z"/></clipPath></defs></svg><svg fill="none" viewBox="0 0 22 17" id="view" xmlns="http://www.w3.org/2000/svg"><path d="M20.257 7.462c.474.62.474 1.457 0 2.076C18.764 11.487 15.182 15.5 11 15.5c-4.182 0-7.764-4.013-9.257-5.962a1.692 1.692 0 0 1 0-2.076C3.236 5.513 6.818 1.5 11 1.5c4.182 0 7.764 4.013 9.257 5.962v0Z" stroke="#8F8F8F" stroke-width="2" stroke-linecap="round" stroke-linejoin="round"/><path d="M11 11.5a3 3 0 1 0 0-6 3 3 0 0 0 0 6Z" stroke="#8F8F8F" stroke-width="2" stroke-linecap="round" stroke-linejoin="round"/></svg></svg>